<svg height="1024" node-id="1" sillyvg="true" template-height="1024" template-width="1024" version="1.1" viewBox="0 0 1024 1024" width="1024" xmlns="http://www.w3.org/2000/svg" xmlns:xlink="http://www.w3.org/1999/xlink"><defs node-id="43"><linearGradient gradientUnits="objectBoundingBox" id="linearGradient-1" node-id="3" spreadMethod="pad" x1="0.10956353" x2="0.9235294" y1="0.8108553" y2="0.16976193"><stop offset="0" stop-color="#aeb7c4"></stop><stop offset="1" stop-color="#cfd5e0"></stop></linearGradient><linearGradient gradientUnits="objectBoundingBox" id="linearGradient-2" node-id="6" spreadMethod="pad" x1="0.6765437" x2="0.36497417" y1="0.89788246" y2="-0.02275011"><stop offset="0" stop-color="#dce2ec"></stop><stop offset="1" stop-color="#ffffff"></stop></linearGradient><linearGradient gradientUnits="objectBoundingBox" id="linearGradient-3" node-id="9" spreadMethod="pad" x1="1.0296922" x2="-0.07458816" y1="0.8108553" y2="0.16976193"><stop offset="0" stop-color="#aeb7c4"></stop><stop offset="1" stop-color="#cfd5e0"></stop></linearGradient><linearGradient gradientUnits="objectBoundingBox" id="linearGradient-4" node-id="12" spreadMethod="pad" x1="1.1386389" x2="0.011550162" y1="0.89788246" y2="-0.02275011"><stop offset="0" stop-color="#dce2ec"></stop><stop offset="1" stop-color="#ffffff"></stop></linearGradient><linearGradient gradientUnits="objectBoundingBox" id="linearGradient-5" node-id="15" spreadMethod="pad" x1="1.0422176" x2="-0.08817519" y1="0.5240643" y2="0.47443518"><stop offset="0" stop-color="#aeb7c4"></stop><stop offset="1" stop-color="#cfd5e0"></stop></linearGradient><linearGradient gradientUnits="objectBoundingBox" id="linearGradient-6" node-id="18" spreadMethod="pad" x1="0.70097554" x2="0.34628794" y1="0.89788246" y2="-0.02275011"><stop offset="0" stop-color="#dce2ec"></stop><stop offset="1" stop-color="#ffffff"></stop></linearGradient><linearGradient gradientUnits="objectBoundingBox" id="linearGradient-7" node-id="21" spreadMethod="pad" x1="0.68495446" x2="0.299369" y1="0.8108553" y2="0.16976193"><stop offset="0" stop-color="#aeb7c4"></stop><stop offset="1" stop-color="#cfd5e0"></stop></linearGradient></defs><path d="M 0.00 0.00 L 1024.00 0.00 L 1024.00 1024.00 L 0.00 1024.00 Z" fill="none" id="bg" node-id="25" stroke="none" target-height="1024" target-width="1024" target-x="0" target-y="0"></path><g node-id="86"><path d="M 64.00 64.00 L 960.00 64.00 L 960.00 960.00 L 64.00 960.00 Z" fill="none" group-id="1" id="矩形" node-id="27" stroke="none" target-height="896" target-width="896" target-x="64" target-y="64"></path><g node-id="87"><path d="M 354.89 462.22 L 345.13 468.92 L 334.88 476.19 L 324.68 483.76 L 314.59 491.66 L 304.83 499.87 L 295.78 508.18 L 290.02 513.95 L 284.83 519.66 L 280.18 525.30 L 275.88 531.22 L 272.35 536.97 L 269.53 542.57 L 267.80 546.96 L 266.59 551.24 L 265.86 555.42 L 265.60 559.52 L 265.60 575.47 L 265.60 592.96 L 265.60 610.47 L 265.60 626.47 L 265.86 628.39 L 266.53 630.13 L 267.62 631.73 L 269.02 633.11 L 270.67 634.28 L 272.60 635.25 L 274.65 635.94 L 276.74 636.33 L 278.90 636.44 L 281.04 636.22 L 283.03 635.65 L 284.90 634.73 L 289.62 631.87 L 295.10 628.91 L 301.41 625.86 L 307.83 623.14 L 315.03 620.57 L 323.05 618.14 L 331.17 616.17 L 340.09 614.57 L 349.87 613.37 L 357.14 612.84 L 364.89 612.64 L 373.13 612.79 L 381.90 613.32 L 387.93 613.57 L 392.96 613.33 L 397.11 612.69 L 400.53 611.71 L 403.90 610.19 L 406.64 608.38 L 408.82 606.28 L 410.52 603.89 L 411.81 601.21 L 412.73 598.26 L 413.29 594.99 L 413.44 591.36 L 413.12 586.55 L 412.28 581.33 L 410.86 575.62 L 409.08 570.02 L 406.92 564.21 L 404.36 558.18 L 400.14 549.31 L 395.51 540.55 L 390.64 532.02 L 385.89 524.21 L 377.07 510.68 L 370.62 501.46 L 368.12 498.06 L 354.89 462.22 Z" fill="url(#linearGradient-1)" fill-rule="nonzero" group-id="1,2" id="Path" node-id="29" stroke="none" target-height="174.22" target-width="147.84" target-x="265.6" target-y="462.22"></path><g node-id="88"><path d="M 669.11 449.78 L 678.87 456.48 L 689.12 463.75 L 699.32 471.31 L 709.41 479.22 L 719.17 487.43 L 728.22 495.74 L 733.98 501.51 L 739.17 507.21 L 743.82 512.86 L 748.12 518.77 L 751.65 524.52 L 754.47 530.12 L 756.20 534.52 L 757.41 538.80 L 758.14 542.97 L 758.40 547.08 L 758.40 563.03 L 758.40 580.52 L 758.40 598.03 L 758.40 614.02 L 758.14 615.95 L 757.47 617.69 L 756.38 619.29 L 754.98 620.67 L 753.33 621.84 L 751.40 622.80 L 749.35 623.49 L 747.26 623.89 L 745.10 624.00 L 742.96 623.78 L 740.97 623.21 L 739.10 622.29 L 734.38 619.42 L 728.90 616.46 L 722.59 613.42 L 716.17 610.70 L 708.97 608.12 L 700.95 605.70 L 692.83 603.73 L 683.91 602.13 L 674.13 600.92 L 666.86 600.39 L 659.11 600.19 L 650.87 600.35 L 642.10 600.87 L 636.07 601.12 L 631.04 600.88 L 626.89 600.24 L 623.47 599.26 L 620.10 597.74 L 617.36 595.93 L 615.18 593.84 L 613.48 591.44 L 612.19 588.76 L 611.27 585.81 L 610.71 582.54 L 610.56 578.91 L 610.88 574.11 L 611.72 568.88 L 613.14 563.18 L 614.92 557.57 L 617.08 551.77 L 619.64 545.74 L 623.86 536.86 L 628.49 528.10 L 633.36 519.58 L 638.11 511.77 L 646.93 498.24 L 653.38 489.02 L 655.88 485.61 L 669.11 449.78 Z" fill="url(#linearGradient-1)" fill-rule="nonzero" group-id="1,2,3" id="Path备份-4" node-id="31" stroke="none" target-height="174.22" target-width="147.84003" target-x="610.56" target-y="449.78"></path></g><g node-id="89"><path d="M 452.33 394.44 L 452.54 399.19 L 453.12 403.77 L 454.07 408.21 L 455.37 412.52 L 457.66 418.08 L 460.47 423.30 L 463.84 428.22 L 467.71 432.76 L 472.00 436.88 L 476.76 440.60 L 481.87 443.82 L 487.32 446.52 L 493.14 448.72 L 497.63 449.97 L 502.26 450.87 L 507.04 451.43 L 512.00 451.63 L 516.96 451.43 L 521.74 450.87 L 526.37 449.97 L 530.86 448.72 L 536.68 446.52 L 542.13 443.82 L 547.24 440.60 L 552.00 436.88 L 556.29 432.76 L 560.16 428.22 L 563.53 423.30 L 566.34 418.08 L 568.63 412.52 L 569.93 408.21 L 570.88 403.77 L 571.46 399.19 L 571.67 394.44 L 571.46 389.69 L 570.88 385.11 L 569.93 380.67 L 568.63 376.36 L 566.34 370.80 L 563.53 365.58 L 560.16 360.66 L 556.29 356.12 L 552.00 352.00 L 547.24 348.28 L 542.13 345.06 L 536.68 342.36 L 530.86 340.16 L 526.37 338.91 L 521.74 338.01 L 516.96 337.45 L 512.00 337.25 L 507.04 337.45 L 502.26 338.01 L 497.63 338.91 L 493.14 340.16 L 487.32 342.36 L 481.87 345.06 L 476.76 348.28 L 472.00 352.00 L 467.71 356.12 L 463.84 360.66 L 460.47 365.58 L 457.66 370.80 L 455.37 376.36 L 454.07 380.67 L 453.12 385.11 L 452.54 389.69 L 452.33 394.44 Z" fill="#ffffff" fill-rule="nonzero" group-id="1,2,4" id="路径" node-id="33" stroke="none" target-height="114.380005" target-width="119.34" target-x="452.33" target-y="337.25"></path><path d="M 512.00 457.99 L 507.08 457.77 L 502.33 457.19 L 497.73 456.24 L 493.26 454.93 L 487.48 452.63 L 482.04 449.79 L 476.93 446.40 L 472.19 442.51 L 467.89 438.19 L 464.01 433.40 L 460.63 428.26 L 457.79 422.77 L 455.48 416.92 L 454.15 412.40 L 453.18 407.74 L 452.57 402.93 L 452.33 397.94 L 452.60 391.87 L 453.42 386.01 L 454.79 380.32 L 456.71 374.79 L 459.16 369.46 L 462.10 364.42 L 465.54 359.65 L 469.52 355.13 L 473.92 351.03 L 478.59 347.47 L 483.52 344.42 L 488.75 341.88 L 494.21 339.87 L 499.82 338.43 L 505.60 337.56 L 511.58 337.25 L 512.00 337.25 L 516.92 337.46 L 521.67 338.04 L 526.27 338.99 L 530.74 340.31 L 536.52 342.61 L 541.96 345.44 L 547.07 348.83 L 551.81 352.72 L 556.11 357.05 L 559.99 361.83 L 563.37 366.98 L 566.21 372.46 L 568.52 378.31 L 569.85 382.83 L 570.82 387.49 L 571.43 392.31 L 571.67 397.29 L 571.40 403.36 L 570.58 409.22 L 569.21 414.91 L 567.29 420.44 L 564.84 425.77 L 561.90 430.81 L 558.46 435.58 L 554.48 440.10 L 550.08 444.21 L 545.41 447.77 L 540.48 450.81 L 535.25 453.35 L 529.79 455.36 L 524.18 456.80 L 518.40 457.68 L 512.42 457.99 L 512.00 457.99 Z M 512.00 338.98 L 511.69 338.98 L 505.86 339.32 L 500.25 340.19 L 494.80 341.61 L 489.51 343.56 L 484.43 346.03 L 479.63 348.98 L 475.08 352.44 L 470.76 356.43 L 466.90 360.83 L 463.56 365.46 L 460.70 370.35 L 458.32 375.52 L 456.45 380.89 L 455.10 386.40 L 454.29 392.08 L 454.00 397.94 L 454.23 402.78 L 454.82 407.45 L 455.76 411.98 L 457.05 416.37 L 459.29 422.05 L 462.05 427.37 L 465.33 432.37 L 469.10 437.02 L 473.27 441.22 L 477.88 445.00 L 482.84 448.29 L 488.13 451.05 L 493.75 453.28 L 498.10 454.56 L 502.58 455.48 L 507.21 456.05 L 512.00 456.25 L 512.31 456.25 L 518.14 455.92 L 523.75 455.04 L 529.20 453.63 L 534.49 451.67 L 539.57 449.21 L 544.37 446.25 L 548.92 442.79 L 553.24 438.80 L 557.10 434.41 L 560.44 429.77 L 563.30 424.88 L 565.68 419.71 L 567.55 414.34 L 568.90 408.83 L 569.71 403.16 L 570.00 397.29 L 569.77 392.45 L 569.17 387.78 L 568.23 383.26 L 566.94 378.87 L 564.69 373.19 L 561.93 367.86 L 558.64 362.86 L 554.87 358.22 L 550.69 354.02 L 546.08 350.24 L 541.11 346.95 L 535.83 344.19 L 530.21 341.96 L 525.86 340.68 L 521.39 339.75 L 516.77 339.19 L 512.00 338.98 Z" fill="#7993aa" fill-rule="nonzero" group-id="1,2,4" id="形状" node-id="34" stroke="none" target-height="120.73999" target-width="119.34" target-x="452.33" target-y="337.25"></path><path d="M 417.06 680.40 L 415.35 680.23 L 413.76 679.79 L 412.27 679.06 L 410.93 678.08 L 409.78 676.89 L 408.81 675.47 L 402.46 663.11 L 396.36 649.94 L 390.53 635.92 L 384.99 621.00 L 380.04 606.11 L 375.42 590.57 L 371.15 574.34 L 367.22 557.41 L 363.82 540.54 L 360.81 523.20 L 358.21 505.36 L 356.01 487.01 L 354.30 468.73 L 353.03 450.17 L 352.21 431.30 L 351.85 412.13 L 352.00 399.11 L 352.64 385.96 L 353.76 372.66 L 355.37 359.20 L 357.50 345.58 L 360.05 332.18 L 363.08 318.66 L 366.59 305.02 L 370.60 291.25 L 375.11 277.35 L 380.00 263.76 L 385.37 250.09 L 391.23 236.33 L 397.59 222.47 L 404.28 208.87 L 411.43 195.23 L 419.06 181.56 L 427.18 167.84 L 434.84 155.57 L 442.22 144.25 L 449.33 133.85 L 460.10 118.82 L 469.71 106.14 L 479.04 94.44 L 486.64 85.32 L 493.68 77.23 L 498.41 72.00 L 503.34 66.78 L 505.40 65.22 L 507.57 64.32 L 509.91 64.00 L 511.69 64.16 L 513.38 64.66 L 514.94 65.48 L 516.38 66.68 L 521.37 71.83 L 526.17 77.00 L 533.31 85.00 L 541.03 94.01 L 550.50 105.59 L 560.27 118.15 L 571.23 133.04 L 578.47 143.36 L 585.98 154.59 L 593.79 166.77 L 602.10 180.37 L 609.91 193.95 L 617.24 207.51 L 624.10 221.04 L 630.63 234.84 L 636.65 248.53 L 642.17 262.13 L 647.21 275.64 L 651.91 289.48 L 656.10 303.18 L 659.79 316.77 L 662.99 330.23 L 665.70 343.59 L 667.99 357.16 L 669.77 370.59 L 671.05 383.88 L 671.84 397.05 L 672.15 410.09 L 672.02 429.27 L 671.43 448.14 L 670.39 466.72 L 668.90 485.02 L 666.93 503.39 L 664.54 521.25 L 661.74 538.63 L 658.54 555.54 L 654.83 572.51 L 650.75 588.79 L 646.32 604.39 L 641.56 619.33 L 636.20 634.31 L 630.55 648.40 L 624.62 661.64 L 618.41 674.08 L 617.45 675.55 L 616.30 676.77 L 614.96 677.76 L 613.47 678.50 L 611.88 678.95 L 610.17 679.11 L 604.84 679.17 L 590.21 679.29 L 568.60 679.44 L 542.33 679.61 L 513.73 679.79 L 485.12 679.98 L 458.83 680.14 L 437.17 680.27 L 422.47 680.36 L 417.06 680.40 L 417.06 680.40 Z" fill="url(#linearGradient-2)" fill-rule="nonzero" group-id="1,2,4" id="路径" node-id="35" stroke="none" target-height="616.4" target-width="320.30002" target-x="351.85" target-y="64"></path><g node-id="90"><path d="M 571.67 260.99 L 571.45 266.27 L 570.83 271.37 L 569.84 276.30 L 568.47 281.08 L 566.71 285.76 L 564.64 290.22 L 562.26 294.47 L 559.55 298.52 L 556.53 302.36 L 553.27 305.93 L 549.75 309.23 L 545.95 312.28 L 541.94 315.02 L 537.74 317.44 L 533.34 319.53 L 528.71 321.30 L 523.98 322.69 L 519.11 323.70 L 514.07 324.32 L 508.86 324.54 L 503.64 324.32 L 498.61 323.70 L 493.74 322.69 L 489.01 321.30 L 484.38 319.53 L 479.98 317.44 L 475.78 315.02 L 471.77 312.28 L 467.97 309.23 L 464.45 305.93 L 461.19 302.36 L 458.17 298.52 L 455.46 294.47 L 453.07 290.22 L 451.01 285.76 L 449.25 281.08 L 447.88 276.30 L 446.88 271.37 L 446.27 266.27 L 446.05 260.99 L 446.27 255.71 L 446.88 250.62 L 447.88 245.69 L 449.25 240.91 L 451.01 236.22 L 453.07 231.77 L 455.46 227.52 L 458.17 223.46 L 461.19 219.62 L 464.45 216.06 L 467.97 212.75 L 471.77 209.71 L 475.78 206.96 L 479.98 204.55 L 484.38 202.46 L 489.01 200.69 L 493.74 199.29 L 498.61 198.29 L 503.64 197.67 L 508.86 197.45 L 514.07 197.67 L 519.11 198.29 L 523.98 199.29 L 528.71 200.69 L 533.34 202.46 L 537.74 204.55 L 541.94 206.96 L 545.95 209.71 L 549.75 212.75 L 553.27 216.06 L 556.53 219.62 L 559.55 223.46 L 562.26 227.52 L 564.64 231.77 L 566.71 236.22 L 568.47 240.91 L 569.84 245.69 L 570.83 250.62 L 571.45 255.71 L 571.67 260.99 Z" fill="url(#linearGradient-3)" fill-rule="nonzero" group-id="1,2,4,5" id="椭圆形" node-id="37" stroke="none" target-height="127.09001" target-width="125.619995" target-x="446.05" target-y="197.45"></path><path d="M 546.54 260.99 L 546.34 264.95 L 545.77 268.73 L 544.85 272.35 L 543.58 275.83 L 541.38 280.26 L 538.69 284.29 L 535.51 287.95 L 531.88 291.18 L 527.90 293.90 L 523.53 296.12 L 520.08 297.41 L 516.51 298.34 L 512.77 298.91 L 508.86 299.12 L 504.95 298.91 L 501.21 298.34 L 497.63 297.41 L 494.19 296.12 L 489.82 293.90 L 485.84 291.18 L 482.21 287.95 L 479.02 284.29 L 476.34 280.26 L 474.14 275.83 L 472.87 272.35 L 471.95 268.73 L 471.38 264.95 L 471.17 260.99 L 471.38 257.03 L 471.95 253.25 L 472.87 249.63 L 474.14 246.15 L 476.34 241.72 L 479.02 237.70 L 482.21 234.03 L 485.84 230.80 L 489.82 228.09 L 494.19 225.86 L 497.63 224.58 L 501.21 223.65 L 504.95 223.08 L 508.86 222.87 L 512.77 223.08 L 516.51 223.65 L 520.08 224.58 L 523.53 225.86 L 527.90 228.09 L 531.88 230.80 L 535.51 234.03 L 538.69 237.70 L 541.38 241.72 L 543.58 246.15 L 544.85 249.63 L 545.77 253.25 L 546.34 257.03 L 546.54 260.99 Z" fill="url(#linearGradient-4)" fill-rule="nonzero" group-id="1,2,4,5" id="椭圆形" node-id="38" stroke="none" target-height="76.25" target-width="75.369965" target-x="471.17" target-y="222.87"></path></g><path d="M 612.10 672.91 L 617.41 662.86 L 622.57 652.14 L 627.58 640.73 L 632.19 629.17 L 636.58 616.98 L 640.76 604.14 L 628.70 611.19 L 617.26 617.49 L 606.42 623.09 L 596.14 628.02 L 585.47 632.70 L 575.18 636.72 L 565.26 640.11 L 555.70 642.91 L 545.89 645.26 L 536.20 647.03 L 526.61 648.24 L 517.12 648.90 L 507.61 649.01 L 497.95 648.59 L 488.12 647.61 L 478.11 646.06 L 468.31 644.04 L 458.09 641.46 L 447.45 638.29 L 436.35 634.48 L 425.62 630.39 L 414.26 625.68 L 402.24 620.31 L 389.52 614.25 L 393.53 625.29 L 397.68 635.83 L 401.98 645.88 L 406.58 655.81 L 411.31 665.19 L 416.17 674.04 L 612.10 672.91 L 612.10 672.91 Z" fill="url(#linearGradient-5)" fill-rule="nonzero" group-id="1,2,4" id="路径" node-id="39" stroke="none" target-height="69.89996" target-width="251.24002" target-x="389.52" target-y="604.14"></path><path d="M 519.22 953.65 L 517.56 953.49 L 516.00 953.06 L 514.53 952.35 L 513.20 951.39 L 512.06 950.21 L 511.09 948.79 L 508.18 943.42 L 501.87 931.47 L 493.14 914.35 L 483.00 893.52 L 477.75 882.25 L 472.44 870.42 L 467.32 858.45 L 462.47 846.49 L 457.98 834.54 L 454.09 823.17 L 450.74 811.97 L 448.28 801.90 L 447.04 795.22 L 446.32 789.33 L 446.05 784.13 L 446.29 776.21 L 447.04 768.48 L 448.30 760.93 L 450.09 753.49 L 452.35 746.35 L 455.09 739.48 L 458.34 732.85 L 462.03 726.61 L 466.17 720.75 L 469.72 716.41 L 473.41 712.48 L 477.23 708.93 L 481.19 705.74 L 485.40 702.82 L 489.71 700.30 L 494.12 698.16 L 498.64 696.39 L 503.30 694.98 L 508.03 693.96 L 512.84 693.34 L 517.76 693.11 L 518.07 693.11 L 522.96 693.31 L 527.76 693.90 L 532.48 694.88 L 537.13 696.25 L 541.64 697.97 L 546.06 700.07 L 550.37 702.54 L 554.61 705.41 L 558.59 708.55 L 562.44 712.05 L 566.17 715.93 L 569.77 720.21 L 573.95 726.00 L 577.69 732.18 L 581.00 738.76 L 583.82 745.57 L 586.16 752.67 L 588.03 760.07 L 589.37 767.58 L 590.20 775.27 L 590.51 783.16 L 590.31 788.36 L 589.67 794.26 L 588.52 800.96 L 586.19 811.05 L 582.98 822.30 L 579.23 833.72 L 574.88 845.72 L 570.18 857.74 L 565.20 869.78 L 560.04 881.67 L 554.92 893.01 L 545.03 913.97 L 536.50 931.20 L 530.31 943.26 L 527.45 948.68 L 526.48 950.13 L 525.32 951.33 L 523.98 952.31 L 522.49 953.04 L 520.91 953.48 L 519.22 953.65 Z" fill="url(#linearGradient-6)" fill-rule="nonzero" group-id="1,2,4" id="路径" node-id="40" stroke="none" target-height="260.54004" target-width="144.46002" target-x="446.05" target-y="693.11"></path><path d="M 514.98 699.80 L 520.17 700.08 L 525.19 700.85 L 530.06 702.12 L 534.82 703.89 L 539.39 706.09 L 543.78 708.72 L 548.01 711.77 L 552.08 715.28 L 555.83 719.07 L 559.36 723.22 L 562.66 727.74 L 565.73 732.65 L 568.44 737.72 L 570.84 743.07 L 572.95 748.73 L 574.75 754.70 L 576.16 760.72 L 577.19 766.95 L 577.84 773.40 L 578.11 780.10 L 577.91 785.08 L 577.25 790.80 L 576.07 797.36 L 573.70 807.25 L 570.43 818.35 L 566.62 829.64 L 562.21 841.54 L 557.46 853.47 L 552.44 865.39 L 547.25 877.17 L 542.14 888.36 L 532.35 908.90 L 524.08 925.49 L 518.37 936.56 L 516.24 940.60 L 514.05 936.59 L 508.19 925.58 L 499.70 909.10 L 489.63 888.68 L 484.38 877.56 L 479.03 865.85 L 473.86 853.99 L 468.95 842.14 L 464.38 830.30 L 460.43 819.06 L 457.02 808.01 L 454.52 798.16 L 453.26 791.63 L 452.53 785.93 L 452.28 780.96 L 452.45 774.23 L 453.02 767.74 L 453.98 761.47 L 455.31 755.41 L 457.04 749.39 L 459.09 743.69 L 461.44 738.29 L 464.10 733.18 L 467.13 728.22 L 470.39 723.65 L 473.88 719.45 L 477.61 715.61 L 481.66 712.06 L 485.87 708.96 L 490.25 706.29 L 494.81 704.04 L 499.57 702.23 L 504.45 700.92 L 509.47 700.11 L 514.67 699.80 L 514.98 699.80 M 514.98 680.40 L 514.57 680.40 L 508.91 680.66 L 503.39 681.36 L 497.97 682.51 L 492.65 684.09 L 487.48 686.10 L 482.44 688.52 L 477.53 691.37 L 472.73 694.67 L 468.22 698.28 L 463.86 702.30 L 459.66 706.75 L 455.61 711.66 L 451.07 718.10 L 447.01 724.95 L 443.43 732.22 L 440.41 739.74 L 437.91 747.56 L 435.94 755.70 L 434.55 763.96 L 433.73 772.41 L 433.49 781.07 L 433.78 787.16 L 434.66 794.28 L 436.24 802.57 L 438.63 812.18 L 441.96 823.27 L 446.32 835.89 L 451.91 850.39 L 458.88 866.97 L 467.40 885.84 L 473.48 898.68 L 479.17 910.33 L 489.42 930.55 L 496.78 944.50 L 499.85 950.19 L 501.79 953.05 L 504.08 955.42 L 506.74 957.36 L 509.70 958.81 L 512.81 959.68 L 516.13 960.00 L 516.24 960.00 L 519.60 959.67 L 522.74 958.77 L 525.71 957.29 L 528.36 955.31 L 530.62 952.89 L 532.51 949.98 L 535.53 944.25 L 542.74 930.20 L 552.76 909.84 L 558.32 898.11 L 564.23 885.19 L 572.52 866.20 L 579.28 849.53 L 584.69 834.95 L 588.88 822.29 L 592.07 811.16 L 594.34 801.52 L 595.80 793.21 L 596.59 786.08 L 596.79 779.99 L 596.42 771.37 L 595.50 762.97 L 594.02 754.76 L 591.97 746.67 L 589.40 738.90 L 586.31 731.43 L 582.67 724.22 L 578.55 717.42 L 573.94 711.01 L 569.87 706.19 L 565.64 701.81 L 561.27 697.86 L 556.73 694.31 L 551.91 691.07 L 546.99 688.28 L 541.95 685.91 L 536.78 683.95 L 531.47 682.40 L 526.08 681.30 L 520.59 680.63 L 514.98 680.40 L 514.98 680.40 Z" fill="url(#linearGradient-7)" fill-rule="nonzero" group-id="1,2,4" id="形状" node-id="41" stroke="none" target-height="279.59998" target-width="163.29999" target-x="433.49" target-y="680.4"></path></g></g></g></svg>